<svg width="107" height="51" viewBox="0 0 107 51" fill="none" xmlns="http://www.w3.org/2000/svg">
<path fill-rule="evenodd" clip-rule="evenodd" d="M49.3044 30.8808C49.7591 28.9949 50 27.0256 50 25C50 21.9964 49.4703 19.1166 48.4993 16.4488L51.3246 10.4545H59.5874L49.3044 30.8808ZM49.3044 30.8808L44.2103 40.9999C46.6221 38.1073 48.3929 34.6616 49.3044 30.8808ZM44.2102 41C39.6243 46.5 32.7209 50 25 50C11.1929 50 0 38.8071 0 25C0 11.1929 11.1929 0 25 0C35.8036 0 45.0066 6.85283 48.4993 16.4488L40.7798 32.8267H40.5263L37.4091 10.4545H29.1463L34.3814 41H44.2102ZM44.2102 41C44.2102 41 44.2103 40.9999 44.2103 40.9999L44.2102 41H44.2102ZM59.7402 40.0156C61.3212 40.9602 63.3098 41.4325 65.7061 41.4325C67.7147 41.4325 69.5243 41.1293 71.1351 40.5227C72.7559 39.9062 74.128 39.0462 75.2516 37.9425C76.3752 36.8288 77.2054 35.5213 77.7424 34.0199L71.0904 33.826C70.812 34.3331 70.449 34.7656 70.0016 35.1236C69.5641 35.4716 69.0669 35.7351 68.5101 35.9141C67.9533 36.0831 67.3567 36.1676 66.7203 36.1676C65.7658 36.1676 64.9853 35.9886 64.3787 35.6307C63.7722 35.2628 63.3446 34.7358 63.0961 34.0497C62.8475 33.3636 62.8027 32.5384 62.9618 31.5739L63.0107 31.3054H78.2644L78.5478 29.4858C78.8659 27.6065 78.8759 25.9411 78.5776 24.4893C78.2793 23.0376 77.7175 21.8146 76.8922 20.8203C76.0669 19.8161 75.0229 19.0604 73.7601 18.5533C72.4973 18.0462 71.0506 17.7926 69.4199 17.7926C67.123 17.7926 65.0399 18.2898 63.1706 19.2841C61.3013 20.2685 59.7502 21.6506 58.5172 23.4304C57.2942 25.2003 56.4838 27.2685 56.0861 29.6349C55.6784 32.071 55.7928 34.174 56.4292 35.9439C57.0655 37.7038 58.1692 39.0611 59.7402 40.0156ZM63.7862 27.0696H72.1642C72.2836 26.294 72.2189 25.603 71.9703 24.9964C71.7218 24.3899 71.3191 23.9176 70.7623 23.5795C70.2154 23.2315 69.5442 23.0575 68.7488 23.0575C67.9434 23.0575 67.1877 23.2464 66.4817 23.6243C65.7857 23.9922 65.1941 24.4893 64.7069 25.1158C64.2538 25.6983 63.9469 26.3495 63.7862 27.0696ZM84.152 49.1584C85.6037 49.7649 87.4233 50.0682 89.6108 50.0682C91.8977 50.0682 93.9709 49.7251 95.8303 49.0391C97.6896 48.353 99.2159 47.3438 100.409 46.0114C101.602 44.679 102.353 43.0384 102.661 41.0895L106.479 18.0909H99.2159L98.5746 22.0135H98.3658C98.1768 21.3175 97.8587 20.6463 97.4112 20C96.9638 19.3537 96.3473 18.8267 95.5618 18.419C94.7763 18.0014 93.782 17.7926 92.5788 17.7926C90.978 17.7926 89.4119 18.2102 87.8807 19.0455C86.3594 19.8807 85.027 21.1683 83.8835 22.9084C82.7401 24.6385 81.9446 26.8409 81.4972 29.5156C81.0696 32.1108 81.1342 34.2337 81.691 35.8842C82.2479 37.5249 83.1527 38.7379 84.4055 39.5234C85.6584 40.299 87.125 40.6868 88.8054 40.6868C89.929 40.6868 90.9531 40.5277 91.8778 40.2095C92.8026 39.8913 93.603 39.4538 94.2791 38.897C94.9553 38.3402 95.4922 37.7088 95.8899 37.0028H96.1435L95.4723 41.0298C95.2635 42.4915 94.7067 43.5206 93.8018 44.1172C92.897 44.7138 91.8331 45.0121 90.6101 45.0121C89.8146 45.0121 89.1484 44.9176 88.6115 44.7287C88.0746 44.5497 87.6619 44.2862 87.3736 43.9382C87.0852 43.5902 86.9112 43.1776 86.8516 42.7003L79.8715 43.0881C79.8416 44.4205 80.1847 45.6136 80.9006 46.6676C81.6165 47.7216 82.7003 48.5518 84.152 49.1584ZM94.5774 34.6761C93.8615 35.1435 93.0611 35.3771 92.1761 35.3771C91.2812 35.3771 90.5604 35.1435 90.0135 34.6761C89.4766 34.2088 89.1186 33.5376 88.9396 32.6626C88.7706 31.7876 88.7855 30.7386 88.9844 29.5156C89.1733 28.2926 89.5014 27.2337 89.9688 26.3388C90.446 25.4339 91.0327 24.733 91.7287 24.2358C92.4347 23.7386 93.2401 23.4901 94.1449 23.4901C95.0398 23.4901 95.7607 23.7337 96.3075 24.2209C96.8544 24.7081 97.2223 25.4041 97.4112 26.3089C97.6101 27.2038 97.6101 28.2727 97.4112 29.5156C97.2124 30.7386 96.8693 31.7876 96.3821 32.6626C95.8949 33.5376 95.2933 34.2088 94.5774 34.6761Z" fill="white" fill-opacity="0.7"/>
</svg>
